<!DOCTYPE svg PUBLIC "-//W3C//DTD SVG 1.1//EN" "http://www.w3.org/Graphics/SVG/1.1/DTD/svg11.dtd">
<!-- Uploaded to: SVG Repo, www.svgrepo.com, Transformed by: SVG Repo Mixer Tools -->
<svg fill="#04edf5" width="800px" height="800px" viewBox="0 0 32 32" xmlns="http://www.w3.org/2000/svg" stroke="#04edf5">
<g id="SVGRepo_bgCarrier" stroke-width="0"/>
<g id="SVGRepo_tracerCarrier" stroke-linecap="round" stroke-linejoin="round"/>
<g id="SVGRepo_iconCarrier"> <title/> <g data-name="Layer 12" id="Layer_12"> <path d="M27.71,1H4.29A3.3,3.3,0,0,0,1,4.29V21.71A3.3,3.3,0,0,0,4.29,25H11v5a1,1,0,0,0,1,1h8a1,1,0,0,0,1-1V25h6.71A3.3,3.3,0,0,0,31,21.71V4.29A3.3,3.3,0,0,0,27.71,1ZM19,29H13V25h6Zm10-7.29A1.29,1.29,0,0,1,27.71,23H4.29A1.29,1.29,0,0,1,3,21.71V4.29A1.29,1.29,0,0,1,4.29,3H27.71A1.29,1.29,0,0,1,29,4.29Z"/> <path d="M16,5a8,8,0,1,0,8,8A8,8,0,0,0,16,5Zm0,14a6,6,0,1,1,6-6A6,6,0,0,1,16,19Z"/> <circle cx="16" cy="13" r="2"/> </g> </g>
</svg>